<mxfile host="app.diagrams.net" agent="Mozilla/5.0 (Macintosh; Intel Mac OS X 10_15_7) AppleWebKit/537.36 (KHTML, like Gecko) Chrome/129.0.0.0 Safari/537.36" version="24.7.17">
  <diagram name="Page-1" id="hv0sp_AvCB_-yM-yH8pF">
    <mxGraphModel grid="1" page="1" gridSize="10" guides="1" tooltips="1" connect="1" arrows="1" fold="1" pageScale="1" pageWidth="850" pageHeight="1100" math="0" shadow="0">
      <root>
        <mxCell id="0" />
        <mxCell id="1" parent="0" />
        <mxCell id="lwEFzDpNobRK5-Y9auR--14" value="" style="edgeStyle=orthogonalEdgeStyle;rounded=0;orthogonalLoop=1;jettySize=auto;html=1;" edge="1" parent="1" source="lwEFzDpNobRK5-Y9auR--11" target="lwEFzDpNobRK5-Y9auR--13">
          <mxGeometry relative="1" as="geometry" />
        </mxCell>
        <mxCell id="lwEFzDpNobRK5-Y9auR--11" value="" style="rounded=1;whiteSpace=wrap;html=1;rotation=90;dashed=1;" vertex="1" parent="1">
          <mxGeometry x="414.38" y="124.38000000000001" width="111.25" height="91.25" as="geometry" />
        </mxCell>
        <mxCell id="lwEFzDpNobRK5-Y9auR--6" value="" style="edgeStyle=orthogonalEdgeStyle;rounded=0;orthogonalLoop=1;jettySize=auto;html=1;" edge="1" parent="1" source="lwEFzDpNobRK5-Y9auR--1">
          <mxGeometry relative="1" as="geometry">
            <mxPoint x="270" y="170" as="targetPoint" />
          </mxGeometry>
        </mxCell>
        <mxCell id="lwEFzDpNobRK5-Y9auR--1" value="" style="rounded=1;whiteSpace=wrap;html=1;rotation=90;dashed=1;" vertex="1" parent="1">
          <mxGeometry x="40" y="140" width="180" height="60" as="geometry" />
        </mxCell>
        <mxCell id="lwEFzDpNobRK5-Y9auR--2" value="User" style="text;html=1;align=center;verticalAlign=middle;resizable=0;points=[];autosize=1;strokeColor=none;fillColor=none;" vertex="1" parent="1">
          <mxGeometry x="105" y="220" width="50" height="30" as="geometry" />
        </mxCell>
        <mxCell id="lwEFzDpNobRK5-Y9auR--3" value="" style="sketch=0;pointerEvents=1;shadow=0;dashed=0;html=1;strokeColor=none;fillColor=#000000;labelPosition=center;verticalLabelPosition=bottom;verticalAlign=top;outlineConnect=0;align=center;shape=mxgraph.office.devices.cell_phone_iphone_standalone;" vertex="1" parent="1">
          <mxGeometry x="112.5" y="90" width="35" height="57.57" as="geometry" />
        </mxCell>
        <mxCell id="lwEFzDpNobRK5-Y9auR--4" value="" style="verticalLabelPosition=bottom;html=1;verticalAlign=top;align=center;strokeColor=none;fillColor=#000000;shape=mxgraph.azure.laptop;pointerEvents=1;" vertex="1" parent="1">
          <mxGeometry x="105" y="170" width="50" height="30" as="geometry" />
        </mxCell>
        <mxCell id="lwEFzDpNobRK5-Y9auR--7" value="on app install&lt;div&gt;or sign up&lt;/div&gt;" style="text;html=1;align=center;verticalAlign=middle;resizable=0;points=[];autosize=1;strokeColor=none;fillColor=none;" vertex="1" parent="1">
          <mxGeometry x="175" y="130" width="90" height="40" as="geometry" />
        </mxCell>
        <mxCell id="lwEFzDpNobRK5-Y9auR--8" value="" style="verticalLabelPosition=bottom;html=1;verticalAlign=top;align=center;strokeColor=none;fillColor=#00BEF2;shape=mxgraph.azure.server_rack;" vertex="1" parent="1">
          <mxGeometry x="445" y="130" width="50" height="50" as="geometry" />
        </mxCell>
        <mxCell id="lwEFzDpNobRK5-Y9auR--12" value="API Servers" style="text;html=1;align=center;verticalAlign=middle;resizable=0;points=[];autosize=1;strokeColor=none;fillColor=none;" vertex="1" parent="1">
          <mxGeometry x="425" y="190" width="90" height="30" as="geometry" />
        </mxCell>
        <mxCell id="lwEFzDpNobRK5-Y9auR--13" value="" style="html=1;verticalLabelPosition=bottom;align=center;labelBackgroundColor=#ffffff;verticalAlign=top;strokeWidth=2;strokeColor=#0080F0;shadow=0;dashed=0;shape=mxgraph.ios7.icons.data;" vertex="1" parent="1">
          <mxGeometry x="650" y="142.73" width="44" height="54.55" as="geometry" />
        </mxCell>
        <mxCell id="lwEFzDpNobRK5-Y9auR--15" value="store contact info" style="text;html=1;align=center;verticalAlign=middle;resizable=0;points=[];autosize=1;strokeColor=none;fillColor=none;" vertex="1" parent="1">
          <mxGeometry x="525.62" y="140" width="110" height="30" as="geometry" />
        </mxCell>
        <mxCell id="lwEFzDpNobRK5-Y9auR--19" value="" style="edgeStyle=orthogonalEdgeStyle;rounded=0;orthogonalLoop=1;jettySize=auto;html=1;entryX=0.5;entryY=1;entryDx=0;entryDy=0;" edge="1" parent="1" source="lwEFzDpNobRK5-Y9auR--16" target="lwEFzDpNobRK5-Y9auR--11">
          <mxGeometry relative="1" as="geometry">
            <mxPoint x="380" y="210" as="targetPoint" />
            <Array as="points">
              <mxPoint x="424" y="170" />
            </Array>
          </mxGeometry>
        </mxCell>
        <mxCell id="lwEFzDpNobRK5-Y9auR--16" value="" style="verticalLabelPosition=bottom;html=1;verticalAlign=top;align=center;strokeColor=none;fillColor=#00BEF2;shape=mxgraph.azure.azure_load_balancer;" vertex="1" parent="1">
          <mxGeometry x="265" y="140" width="65" height="60" as="geometry" />
        </mxCell>
        <mxCell id="lwEFzDpNobRK5-Y9auR--20" value="Load balancer" style="text;html=1;align=center;verticalAlign=middle;resizable=0;points=[];autosize=1;strokeColor=none;fillColor=none;" vertex="1" parent="1">
          <mxGeometry x="247.5" y="200" width="100" height="30" as="geometry" />
        </mxCell>
      </root>
    </mxGraphModel>
  </diagram>
</mxfile>
